<?xml version="1.0" encoding="utf-8"?>
<!-- Generator: Adobe Illustrator 23.0.0, SVG Export Plug-In . SVG Version: 6.00 Build 0)  -->
<svg version="1.1" id="Layer_1" xmlns="http://www.w3.org/2000/svg" xmlns:xlink="http://www.w3.org/1999/xlink" x="0px" y="0px"
	 viewBox="0 0 240.39 205.21" style="enable-background:new 0 0 240.39 205.21;" xml:space="preserve">
<style type="text/css">
	.st0{fill:none;}
	.st1{fill:#000;}
</style>
<g>
	<path class="st0" d="M80.04,135.76c0-20.14-15.95-36.61-35.88-37.48l-0.01,74.96C64.09,172.38,80.04,155.9,80.04,135.76z"/>
	<path class="st0" d="M44.17,93.28c22.69,0.87,40.88,19.58,40.88,42.48c0,22.9-18.19,41.61-40.89,42.48l0,21.96l134.18,0.02
		l0.02-134.18L44.17,66.01L44.17,93.28z"/>
	<path class="st0" d="M5,135.76c0,19.55,15.04,35.65,34.16,37.36l0.01-74.72C20.04,100.1,5,116.2,5,135.76z"/>
	<path class="st0" d="M71.92,61.02l108.93,0.01c1.38,0,2.5,1.12,2.5,2.5l-0.01,104.94l22.75,0l0.02-134.18L71.92,34.28L71.92,61.02z
		"/>
	<path class="st0" d="M101.2,29.28l107.4,0.01c0.66,0,1.3,0.26,1.77,0.73s0.73,1.1,0.73,1.77l-0.01,107.4l24.28,0l0.02-134.18
		L101.21,5L101.2,29.28z"/>
	<path class="st1" d="M237.89,0.02L98.71,0c-0.66,0-1.3,0.26-1.77,0.73s-0.73,1.1-0.73,1.77l0,26.78l-26.78,0
		c-0.66,0-1.3,0.26-1.77,0.73s-0.73,1.1-0.73,1.77l0,29.24l-25.25,0c-0.66,0-1.3,0.26-1.77,0.73s-0.73,1.1-0.73,1.77l0,29.87
		C17.28,95.1,0,113.44,0,135.76c0,22.31,17.28,40.65,39.16,42.37l0,24.56c0,1.38,1.12,2.5,2.5,2.5l139.18,0.02
		c0.66,0,1.3-0.26,1.77-0.73s0.73-1.1,0.73-1.77l0-29.24l25.25,0c1.38,0,2.5-1.12,2.5-2.5l0-26.78l26.78,0
		c0.66,0,1.3-0.26,1.77-0.73s0.73-1.1,0.73-1.77l0.02-139.18C240.39,1.14,239.27,0.02,237.89,0.02z M44.17,98.28
		c19.93,0.86,35.88,17.34,35.88,37.48c0,20.14-15.95,36.62-35.88,37.48L44.17,98.28z M5,135.76C5,116.2,20.04,100.1,39.17,98.4
		l-0.01,74.72C20.04,171.41,5,155.31,5,135.76z M178.33,200.21l-134.18-0.02l0-21.96c22.69-0.86,40.89-19.58,40.89-42.48
		c0-22.89-18.19-41.61-40.88-42.48l0-27.27l134.18,0.02L178.33,200.21z M206.09,168.47l-22.75,0l0.01-104.94
		c0-1.38-1.12-2.5-2.5-2.5L71.92,61.02l0-26.74l134.18,0.02L206.09,168.47z M235.37,139.2l-24.28,0l0.01-107.4
		c0-0.66-0.26-1.3-0.73-1.77s-1.1-0.73-1.77-0.73l-107.4-0.01l0-24.28l134.18,0.02L235.37,139.2z"/>
</g>
</svg>
