<?xml version="1.0" encoding="utf-8"?>
<!-- Generator: Adobe Illustrator 23.0.0, SVG Export Plug-In . SVG Version: 6.00 Build 0)  -->
<svg version="1.1" id="Layer_1" xmlns="http://www.w3.org/2000/svg" xmlns:xlink="http://www.w3.org/1999/xlink" x="0px" y="0px"
	 viewBox="0 0 220.04 205.02" style="enable-background:new 0 0 220.04 205.02;" xml:space="preserve">
<style type="text/css">
	.st0{fill:none;}
	.st1{fill:#000;}
</style>
<g>
	<path class="st0" d="M28.28,69c0.45-1.31,1.88-2,3.18-1.55l24.12,8.32c0.46-1.91,0.71-3.91,0.71-5.96
		c0-14.14-11.5-25.64-25.64-25.64S5,55.68,5,69.82s11.5,25.64,25.64,25.64c10.33,0,19.24-6.14,23.3-14.96l-24.12-8.32
		C28.52,71.73,27.83,70.31,28.28,69z"/>
	<path class="st0" d="M110.06,70.6c-10.04,0.82-18.47,7.38-22,16.39l22,7.59V70.6z"/>
	<path class="st0" d="M133.69,82c-4.15-6.17-10.88-10.47-18.63-11.33v22.62L133.69,82z"/>
	<path class="st0" d="M112.56,20.9c1.38,0,2.5,1.12,2.5,2.5v18.98c9.18-1.23,16.28-9.09,16.28-18.6c0-10.36-8.43-18.78-18.78-18.78
		c-10.36,0-18.78,8.43-18.78,18.78c0,9.51,7.11,17.37,16.28,18.6V23.4C110.06,22.02,111.18,20.9,112.56,20.9z"/>
	<path class="st0" d="M86.7,91.81c-0.27,1.49-0.42,3.02-0.42,4.59c0,13.56,10.48,24.72,23.77,25.8V99.87L86.7,91.81z"/>
	<path class="st0" d="M188.6,25.21c-14.58,0-26.44,11.86-26.44,26.44c0,4.12,0.95,8.02,2.64,11.5l22.51-13.64
		c1.18-0.71,2.72-0.34,3.43,0.84c0.72,1.18,0.34,2.72-0.84,3.43l-22.5,13.64c4.82,6.47,12.54,10.67,21.21,10.67
		c14.58,0,26.44-11.86,26.44-26.44C215.04,37.07,203.18,25.21,188.6,25.21z"/>
	<path class="st0" d="M115.06,122.13c12.93-1.44,23.02-12.43,23.02-25.73c0-3.54-0.72-6.92-2.01-9.99l-21.01,12.73V122.13z"/>
	<path class="st1" d="M188.6,20.21c-17.34,0-31.44,14.11-31.44,31.44c0,5.07,1.21,9.85,3.35,14.1l-22.54,13.66
		c-5.03-7.61-13.34-12.88-22.91-13.77V47.43c11.94-1.25,21.28-11.38,21.28-23.65C136.34,10.67,125.67,0,112.56,0
		C99.45,0,88.78,10.67,88.78,23.78c0,12.27,9.34,22.4,21.28,23.65v18.15c-12.22,0.83-22.51,8.8-26.73,19.77l-23-7.94
		c0.62-2.43,0.96-4.98,0.96-7.6c0-16.9-13.75-30.64-30.64-30.64S0,52.92,0,69.82s13.75,30.64,30.64,30.64
		c12.51,0,23.29-7.54,28.05-18.32l23.23,8.02c-0.41,2.02-0.63,4.1-0.63,6.24c0,16.32,12.72,29.72,28.77,30.81v75.31
		c0,1.38,1.12,2.5,2.5,2.5s2.5-1.12,2.5-2.5v-75.36c15.69-1.46,28.02-14.69,28.02-30.76c0-4.49-0.97-8.75-2.7-12.6l22.73-13.77
		c5.72,7.91,15.01,13.07,25.49,13.07c17.34,0,31.44-14.1,31.44-31.44S205.94,20.21,188.6,20.21z M30.64,95.46
		C16.5,95.46,5,83.96,5,69.82s11.5-25.64,25.64-25.64s25.64,11.5,25.64,25.64c0,2.05-0.25,4.05-0.71,5.96l-24.12-8.32
		c-1.3-0.45-2.73,0.24-3.18,1.55c-0.45,1.31,0.24,2.73,1.55,3.18l24.12,8.32C49.88,89.32,40.97,95.46,30.64,95.46z M133.69,82
		l-18.63,11.29V70.67C122.81,71.53,129.54,75.83,133.69,82z M93.78,23.78C93.78,13.43,102.2,5,112.56,5
		c10.36,0,18.78,8.43,18.78,18.78c0,9.51-7.11,17.37-16.28,18.6V23.4c0-1.38-1.12-2.5-2.5-2.5s-2.5,1.12-2.5,2.5v18.98
		C100.88,41.15,93.78,33.29,93.78,23.78z M110.06,70.6v23.98l-22-7.59C91.59,77.98,100.02,71.42,110.06,70.6z M86.29,96.4
		c0-1.57,0.15-3.1,0.42-4.59l23.36,8.06v22.33C96.77,121.12,86.29,109.96,86.29,96.4z M138.07,96.4c0,13.3-10.09,24.29-23.02,25.73
		V99.14l21.01-12.73C137.36,89.48,138.07,92.86,138.07,96.4z M188.6,78.09c-8.67,0-16.38-4.2-21.21-10.67l22.5-13.64
		c1.18-0.72,1.56-2.25,0.84-3.43c-0.71-1.18-2.25-1.56-3.43-0.84l-22.51,13.64c-1.69-3.48-2.64-7.38-2.64-11.5
		c0-14.58,11.86-26.44,26.44-26.44c14.58,0,26.44,11.86,26.44,26.44C215.04,66.23,203.18,78.09,188.6,78.09z"/>
</g>
</svg>
