<?xml version="1.0" encoding="utf-8"?>
<!-- Generator: Adobe Illustrator 23.0.0, SVG Export Plug-In . SVG Version: 6.00 Build 0)  -->
<svg version="1.1" id="Layer_1" xmlns="http://www.w3.org/2000/svg" xmlns:xlink="http://www.w3.org/1999/xlink" x="0px" y="0px"
	 viewBox="0 0 207.56 204.23" style="enable-background:new 0 0 207.56 204.23;" xml:space="preserve">
<style type="text/css">
	.st0{fill:none;}
	.st1{fill:#000;}
</style>
<g>
	<path class="st0" d="M123.37,55.44c0-9.96-7.47-18.18-17.09-19.42v38.83C115.9,73.62,123.37,65.4,123.37,55.44z"/>
	<path class="st0" d="M84.18,55.44c0,9.95,7.47,18.18,17.09,19.41V36.03C91.65,37.26,84.18,45.49,84.18,55.44z"/>
	<path class="st0" d="M103.78,5C55.11,5,14.03,46.62,5.87,55.44c8.03,8.67,47.89,49.02,95.41,50.4V79.91
		c-12.39-1.26-22.09-11.75-22.09-24.47c0-13.56,11.02-24.58,24.58-24.59c0,0,0.01,0,0.01,0c0,0,0.01,0,0.01,0
		c13.56,0.01,24.58,11.04,24.58,24.59c0,12.72-9.7,23.21-22.09,24.47v25.94c47.57-1.38,87.39-41.73,95.41-50.4
		C193.52,46.62,152.4,5,103.78,5z"/>
	<path class="st1" d="M206.95,53.81C205.07,51.62,160.21,0,103.78,0C47.34,0,2.48,51.62,0.6,53.81c-0.8,0.94-0.8,2.32,0,3.25
		c1.85,2.16,45.42,52.29,100.68,53.78v90.88c0,1.38,1.12,2.5,2.5,2.5s2.5-1.12,2.5-2.5v-90.88c55.26-1.48,98.82-51.61,100.68-53.78
		C207.76,56.13,207.76,54.75,206.95,53.81z M123.37,55.44c0,9.96-7.47,18.18-17.09,19.42V36.03
		C115.9,37.26,123.37,45.49,123.37,55.44z M101.28,74.86c-9.62-1.23-17.09-9.46-17.09-19.41s7.47-18.18,17.09-19.41V74.86z
		 M106.28,105.84V79.91c12.39-1.26,22.09-11.75,22.09-24.47c0-13.56-11.03-24.59-24.58-24.59c0,0-0.01,0-0.01,0c0,0-0.01,0-0.01,0
		c-13.56,0.01-24.58,11.04-24.58,24.59c0,12.72,9.7,23.21,22.09,24.47v25.94c-47.52-1.38-87.38-41.73-95.41-50.4
		C14.03,46.62,55.11,5,103.78,5c48.62,0,89.74,41.62,97.91,50.44C193.67,64.11,153.84,104.46,106.28,105.84z"/>
</g>
</svg>
