<?xml version="1.0" encoding="utf-8"?>
<!-- Generator: Adobe Illustrator 23.0.0, SVG Export Plug-In . SVG Version: 6.00 Build 0)  -->
<svg version="1.1" id="Layer_1" xmlns="http://www.w3.org/2000/svg" xmlns:xlink="http://www.w3.org/1999/xlink" x="0px" y="0px"
	 viewBox="0 0 169.98 205.27" style="enable-background:new 0 0 169.98 205.27;" xml:space="preserve">
<style type="text/css">
	.st0{fill:none;}
	.st1{fill:#000;}
</style>
<g>
	<path class="st0" d="M109.52,83.1c0-13.53-11.01-24.53-24.53-24.53s-24.53,11-24.53,24.53c0,13.53,11,24.53,24.53,24.53
		S109.52,96.63,109.52,83.1z"/>
	<path class="st0" d="M54.07,29.53C54.07,16,43.06,5,29.53,5S5,16,5,29.53c0,13.53,11,24.53,24.53,24.53S54.07,43.06,54.07,29.53z"
		/>
	<circle class="st0" cx="140.44" cy="139.31" r="24.53"/>
	<path class="st1" d="M114.52,83.1c0-16.28-13.25-29.53-29.53-29.53S55.46,66.82,55.46,83.1c0,15.32,11.72,27.94,26.66,29.39v87.77
		H69.77c-1.38,0-2.5,1.12-2.5,2.5s1.12,2.5,2.5,2.5h29.65c1.38,0,2.5-1.12,2.5-2.5s-1.12-2.5-2.5-2.5h-12.3v-87.71
		C102.41,111.45,114.52,98.67,114.52,83.1z M60.46,83.1c0-13.53,11-24.53,24.53-24.53s24.53,11,24.53,24.53
		c0,13.53-11.01,24.53-24.53,24.53S60.46,96.63,60.46,83.1z"/>
	<path class="st1" d="M59.07,29.53C59.07,13.25,45.82,0,29.53,0S0,13.25,0,29.53c0,15.44,11.91,28.14,27.03,29.42v141.31H14.43
		c-1.38,0-2.5,1.12-2.5,2.5s1.12,2.5,2.5,2.5h29.65c1.38,0,2.5-1.12,2.5-2.5s-1.12-2.5-2.5-2.5H32.03V58.95
		C47.15,57.68,59.07,44.97,59.07,29.53z M5,29.53C5,16,16,5,29.53,5s24.53,11,24.53,24.53c0,13.53-11.01,24.53-24.53,24.53
		S5,43.06,5,29.53z"/>
	<path class="st1" d="M169.98,139.31c0-16.28-13.25-29.53-29.53-29.53s-29.53,13.25-29.53,29.53c0,15.63,12.2,28.45,27.58,29.46
		v31.49h-12.28c-1.38,0-2.5,1.12-2.5,2.5s1.12,2.5,2.5,2.5h29.65c1.38,0,2.5-1.12,2.5-2.5s-1.12-2.5-2.5-2.5h-12.37v-31.58
		C158.35,167.16,169.98,154.57,169.98,139.31z M115.91,139.31c0-13.53,11-24.53,24.53-24.53s24.53,11.01,24.53,24.53
		s-11,24.53-24.53,24.53S115.91,152.84,115.91,139.31z"/>
</g>
</svg>
