<?xml version="1.0" encoding="utf-8"?>
<!-- Generator: Adobe Illustrator 23.0.0, SVG Export Plug-In . SVG Version: 6.00 Build 0)  -->
<svg version="1.1" id="Layer_1" xmlns="http://www.w3.org/2000/svg" xmlns:xlink="http://www.w3.org/1999/xlink" x="0px" y="0px"
	 viewBox="0 0 90.22 204.91" style="enable-background:new 0 0 90.22 204.91;" xml:space="preserve">
<style type="text/css">
	.st0{fill:none;}
	.st1{fill:#000;}
</style>
<g>
	<path class="st0" d="M16.32,177.27c-6.24,0-11.32,5.08-11.32,11.32c0,6.24,5.08,11.32,11.32,11.32c6.24,0,11.32-5.08,11.32-11.32
		c0-0.23,0.04-0.46,0.1-0.67c-0.06-0.21-0.1-0.44-0.1-0.67v-9.98H16.32z"/>
	<path class="st0" d="M72.95,47.88c0-22.8-17.89-41.51-40.38-42.81v85.61C55.05,89.39,72.95,70.68,72.95,47.88z"/>
	<path class="st1" d="M87.72,172.27H32.64V95.69c25.21-1.34,45.3-22.27,45.3-47.81C77.95,21.48,56.47,0,30.07,0
		c-1.38,0-2.5,1.12-2.5,2.5v90.76c0,0.2,0.03,0.39,0.08,0.58v78.43H16.32c-9,0-16.32,7.32-16.32,16.32s7.32,16.32,16.32,16.32
		s16.32-7.32,16.32-16.32c0-0.23-0.04-0.46-0.1-0.67c0.06-0.21,0.1-0.44,0.1-0.67v-9.98h55.08c1.38,0,2.5-1.12,2.5-2.5
		S89.11,172.27,87.72,172.27z M32.57,5.07c22.49,1.3,40.38,20,40.38,42.81c0,22.81-17.89,41.51-40.38,42.81V5.07z M27.75,187.92
		c-0.06,0.21-0.1,0.44-0.1,0.67c0,6.24-5.08,11.32-11.32,11.32c-6.24,0-11.32-5.08-11.32-11.32c0-6.24,5.08-11.32,11.32-11.32h11.32
		v9.98C27.64,187.48,27.69,187.7,27.75,187.92z"/>
</g>
</svg>
