<?xml version="1.0" encoding="utf-8"?>
<!-- Generator: Adobe Illustrator 23.0.0, SVG Export Plug-In . SVG Version: 6.00 Build 0)  -->
<svg version="1.1" id="Layer_1" xmlns="http://www.w3.org/2000/svg" xmlns:xlink="http://www.w3.org/1999/xlink" x="0px" y="0px"
	 viewBox="0 0 128.73 204.91" style="enable-background:new 0 0 128.73 204.91;" xml:space="preserve">
<style type="text/css">
	.st0{fill:none;}
	.st1{fill:#000;}
</style>
<g>
	<path class="st0" d="M48.62,59.76h54.6c-1.28-29.57-25.08-53.4-54.64-54.7c0.02,0.13,0.04,0.27,0.04,0.41V59.76z"/>
	<path class="st0" d="M48.62,119.46c29.54-1.33,53.33-25.14,54.6-54.7h-54.6V119.46z"/>
	<path class="st1" d="M126.23,59.76h-18.01C106.9,26.58,79.52,0,46.03,0c-1.38,0-2.5,1.12-2.5,2.5v119.52
		c0,0.22,0.04,0.44,0.09,0.64v77.25H2.5c-1.38,0-2.5,1.12-2.5,2.5s1.12,2.5,2.5,2.5h87.24c1.38,0,2.5-1.12,2.5-2.5
		s-1.12-2.5-2.5-2.5H48.62v-75.46c32.3-1.33,58.32-27.38,59.6-59.69h18.01c1.38,0,2.5-1.12,2.5-2.5S127.61,59.76,126.23,59.76z
		 M103.22,59.76h-54.6V5.47c0-0.14-0.02-0.28-0.04-0.41C78.14,6.36,101.94,30.19,103.22,59.76z M48.62,119.46v-54.7h54.6
		C101.95,94.31,78.16,118.13,48.62,119.46z"/>
</g>
</svg>
