<?xml version="1.0" encoding="utf-8"?>
<!-- Generator: Adobe Illustrator 23.0.0, SVG Export Plug-In . SVG Version: 6.00 Build 0)  -->
<svg version="1.1" id="Layer_1" xmlns="http://www.w3.org/2000/svg" xmlns:xlink="http://www.w3.org/1999/xlink" x="0px" y="0px"
	 viewBox="0 0 52.1 52.1" style="enable-background:new 0 0 52.1 52.1;" xml:space="preserve">
<style type="text/css">
	.st0{fill-rule:evenodd;clip-rule:evenodd;fill:#11121E;}
	.st1{fill:#000;}
</style>
<path class="st0" d="M26.05,0C40.43,0,52.1,11.66,52.1,26.05c0,14.39-11.66,26.05-26.05,26.05S0,40.44,0,26.05
	C0,11.66,11.66,0,26.05,0z"/>
<g>
	<g>
		<g>
			<path class="st1" d="M24.11,24.93c0.68,0.28,1.41,0.42,2.2,0.42c0.78,0,1.52-0.14,2.19-0.42c0.71-0.29,1.33-0.72,1.85-1.29
				c1.06-1.16,1.63-2.83,1.63-4.84c0-1.72-0.81-3.94-2.42-6.6c-1.15-1.91-2.29-3.34-2.34-3.4l-0.92-1.15L25.39,8.8
				c-0.05,0.06-1.19,1.49-2.34,3.4c-1.6,2.66-2.42,4.88-2.42,6.6c0,2,0.56,3.68,1.63,4.84C22.78,24.2,23.4,24.64,24.11,24.93z
				 M26.31,22.62c-0.96,0-1.16-0.85-1.16-1.57c0-0.3,0.12-0.99,0.9-2.3c0.09-0.14,0.17-0.28,0.26-0.41
				c0.57,0.89,1.16,2.01,1.16,2.71C27.47,21.77,27.27,22.62,26.31,22.62z M25.05,13.43c0.44-0.73,0.89-1.4,1.26-1.93
				c0.37,0.52,0.81,1.18,1.24,1.91c1.36,2.26,2.08,4.12,2.08,5.39c0,0.77-0.1,1.45-0.3,2.02c-0.06-0.84-0.46-1.86-1.18-3.05
				c-0.55-0.91-1.1-1.6-1.12-1.63l-0.73-0.92l-0.73,0.92c-0.02,0.03-0.57,0.72-1.12,1.63c-0.72,1.19-1.11,2.22-1.18,3.05
				c-0.19-0.57-0.3-1.25-0.3-2.02C22.98,17.53,23.7,15.68,25.05,13.43z M37.79,25.96v2.22c0,6.32-5.15,11.46-11.48,11.46
				S14.83,34.5,14.83,28.18v-2.22h-2.03v-0.02l-0.58,0c-1.29,0-2.47,0.44-3.32,1.22c-0.93,0.87-1.43,2.08-1.42,3.52
				c0,1.27,0.5,2.46,1.39,3.35c0.9,0.89,2.09,1.38,3.35,1.38h0l0.57,0h1.18c0.61,1.04,1.35,1.99,2.22,2.85
				c1.31,1.31,2.84,2.34,4.54,3.06c1.76,0.74,3.64,1.12,5.56,1.12c1.93,0,3.8-0.38,5.56-1.12c1.7-0.72,3.23-1.75,4.54-3.06
				c1.31-1.31,2.34-2.84,3.06-4.54c0.75-1.76,1.12-3.63,1.12-5.56v-2.22H37.79z M12.24,32.61L12.24,32.61c-0.52,0-1-0.2-1.37-0.56
				c-0.36-0.36-0.57-0.85-0.57-1.36c0-0.64,0.18-1.13,0.53-1.46c0.29-0.27,0.71-0.43,1.2-0.46c0.05,1.32,0.28,2.61,0.69,3.85
				L12.24,32.61z"/>
		</g>
	</g>
</g>
</svg>
