<?xml version="1.0" encoding="utf-8"?>
<!-- Generator: Adobe Illustrator 23.0.0, SVG Export Plug-In . SVG Version: 6.00 Build 0)  -->
<svg version="1.1" id="Layer_1" xmlns="http://www.w3.org/2000/svg" xmlns:xlink="http://www.w3.org/1999/xlink" x="0px" y="0px"
	 viewBox="0 0 181.72 203.24" style="enable-background:new 0 0 181.72 203.24;" xml:space="preserve">
<style type="text/css">
	.st0{fill:none;}
	.st1{fill:#000;}
</style>
<g>
	<path class="st0" d="M90.88,175.74c4.18-4.14,14.97-16.18,14.97-30.02c-0.01-13.02-9.52-24.39-14.15-29.15
		c-0.16,0.03-0.33,0.05-0.5,0.05h0c-0.36,0-0.71-0.08-1.02-0.22c-4.56,4.67-14.3,16.19-14.29,29.34
		C75.89,159.57,86.69,171.6,90.88,175.74z"/>
	<path class="st0" d="M93.68,96.71l0.01,14.79c4.13,3.9,17.14,17.54,17.15,34.22c0.01,19.4-17.59,34.71-18.34,35.35
		c-0.47,0.4-1.05,0.6-1.63,0.6s-1.16-0.2-1.63-0.6c-0.75-0.64-18.36-15.93-18.37-35.33c-0.01-17.78,14.77-32.12,17.81-34.88
		l-0.01-14.14L5,96.76l0.06,101.48l171.67-0.09l-0.06-101.48L93.68,96.71z"/>
	<path class="st1" d="M181.67,94.16c0-1.38-1.12-2.5-2.5-2.5h0l-85.48,0.05L93.63,2.5c0-1.38-1.12-2.5-2.5-2.5h0
		c-1.38,0-2.5,1.12-2.5,2.5l0.05,89.21L2.5,91.76c-0.66,0-1.3,0.26-1.77,0.73C0.26,92.96,0,93.6,0,94.26l0.06,106.48
		c0,1.38,1.12,2.5,2.5,2.5h0l176.67-0.09c0.66,0,1.3-0.26,1.77-0.73c0.47-0.47,0.73-1.1,0.73-1.77L181.67,94.16z M90.17,116.4
		c0.31,0.14,0.66,0.22,1.02,0.22h0c0.17,0,0.34-0.02,0.5-0.05c4.63,4.77,14.14,16.13,14.15,29.15
		c0.01,13.83-10.79,25.87-14.97,30.02c-4.19-4.14-14.99-16.17-15-30C75.87,132.59,85.62,121.06,90.17,116.4z M5.06,198.24L5,96.76
		l83.68-0.04l0.01,14.14c-3.04,2.76-17.82,17.1-17.81,34.88c0.01,19.4,17.62,34.69,18.37,35.33c0.47,0.4,1.05,0.6,1.63,0.6
		s1.16-0.2,1.63-0.6c0.75-0.64,18.35-15.95,18.34-35.35c-0.01-16.68-13.03-30.32-17.15-34.22l-0.01-14.79l82.98-0.04l0.06,101.48
		L5.06,198.24z"/>
</g>
</svg>
