<?xml version="1.0" encoding="utf-8"?>
<!-- Generator: Adobe Illustrator 23.0.0, SVG Export Plug-In . SVG Version: 6.00 Build 0)  -->
<svg version="1.1" id="Layer_1" xmlns="http://www.w3.org/2000/svg" xmlns:xlink="http://www.w3.org/1999/xlink" x="0px" y="0px"
	 viewBox="0 0 1411.98 1485.82" style="enable-background:new 0 0 1411.98 1485.82;" xml:space="preserve">
<style type="text/css">
	.st0{fill:none;}
</style>
<g>
	<path class="st0" d="M791.35,474.02c-33.55,55.89-38.56,85.45-38.56,98.1c0,30.57,8.59,67.02,49.53,67.02
		c40.93,0,49.53-36.45,49.53-67.02c0-29.97-25.14-77.73-49.53-115.65C798.72,462.01,795.03,467.89,791.35,474.02z"/>
	<path class="st0" d="M723.29,431.96c23.46-38.93,46.76-68.29,47.74-69.52l31.29-39.29l31.29,39.29
		c0.98,1.23,24.28,30.59,47.74,69.52c30.62,50.83,47.44,94.58,50.11,130.28c8.31-24.4,12.64-53.26,12.64-86.19
		c0-54.28-30.68-133.89-88.72-230.22c-18.69-31.01-37.41-59.02-53.06-81.35c-15.84,22.61-34.83,51.01-53.66,82.34
		c-57.65,95.88-88.12,175.15-88.12,229.23c0,32.93,4.33,61.78,12.64,86.19C675.85,526.54,692.67,482.79,723.29,431.96z"/>
	<path class="st0" d="M142.43,920.96c-14.91,13.86-22.46,34.81-22.43,62.27c0.02,21.99,8.6,42.65,24.17,58.19
		c15.54,15.51,36.2,24.06,58.15,24.06c0.03,0,0.05,0,0.08,0l20.63-0.02c-17.32-53.03-27.18-108.05-29.41-164.32
		C172.68,902.64,154.72,909.54,142.43,920.96z"/>
	<path d="M708.74,737.56c28.79,11.77,60.27,17.74,93.58,17.74s64.78-5.97,93.58-17.74c30.33-12.4,56.88-30.91,78.93-55.01
		c45.32-49.54,69.28-120.95,69.28-206.5c0-73.5-34.68-168.33-103.06-281.83c-49.06-81.43-97.56-142.56-99.61-145.12L802.32,0
		L763.2,49.11c-2.04,2.56-50.54,63.69-99.61,145.12c-68.39,113.5-103.06,208.32-103.06,281.83c0,85.55,23.96,156.96,69.28,206.5
		C651.86,706.65,678.42,725.16,708.74,737.56z M802.32,639.14c-40.93,0-49.53-36.45-49.53-67.02c0-12.65,5.01-42.21,38.56-98.1
		c3.68-6.13,7.37-12.01,10.96-17.55c24.39,37.92,49.53,85.68,49.53,115.65C851.84,602.7,843.25,639.14,802.32,639.14z
		 M748.66,246.82c18.84-31.33,37.82-59.73,53.66-82.34c15.65,22.33,34.37,50.34,53.06,81.35c58.04,96.33,88.72,175.94,88.72,230.22
		c0,32.93-4.33,61.78-12.64,86.19c-2.67-35.7-19.49-79.45-50.11-130.28c-23.46-38.93-46.76-68.29-47.74-69.52l-31.29-39.29
		l-31.29,39.29c-0.98,1.23-24.28,30.59-47.74,69.52c-30.62,50.83-47.44,94.58-50.11,130.28c-8.31-24.4-12.64-53.26-12.64-86.19
		C660.54,421.97,691.01,342.7,748.66,246.82z"/>
	<path d="M1291.98,781.55v94.84c0,269.87-219.56,489.43-489.43,489.43c-269.87,0-489.43-219.56-489.43-489.43v-94.84H226.7l0-0.75
		l-24.57,0.02c-54.99,0.05-105.2,18.6-141.38,52.22C20.95,870.04-0.06,922.01,0,983.35c0.05,54.04,21.15,104.83,59.4,143.01
		c38.21,38.13,88.95,59.12,142.92,59.12c0.07,0,0.14,0,0.2,0l24.51-0.02h50.13c26.06,44.27,57.66,85.06,94.46,121.86
		c55.95,55.95,121.12,99.88,193.7,130.58c75.17,31.79,154.99,47.92,237.24,47.92s162.06-16.12,237.24-47.92
		c72.58-30.7,137.75-74.63,193.7-130.58c55.95-55.95,99.88-121.12,130.58-193.7c31.79-75.17,47.92-154.99,47.92-237.23v-94.84
		H1291.98z M202.41,1065.48c-0.03,0-0.05,0-0.08,0c-21.96,0-42.61-8.54-58.15-24.06c-15.56-15.53-24.15-36.2-24.17-58.19
		c-0.03-27.47,7.52-48.42,22.43-62.27c12.29-11.42,30.25-18.32,51.2-19.82c2.23,56.27,12.08,111.28,29.41,164.32L202.41,1065.48z"/>
</g>
</svg>
