<?xml version="1.0" encoding="utf-8"?>
<!-- Generator: Adobe Illustrator 23.0.0, SVG Export Plug-In . SVG Version: 6.00 Build 0)  -->
<svg version="1.1" id="Layer_1" xmlns="http://www.w3.org/2000/svg" xmlns:xlink="http://www.w3.org/1999/xlink" x="0px" y="0px"
	 viewBox="0 0 118.34 205.53" style="enable-background:new 0 0 118.34 205.53;" xml:space="preserve">
<style type="text/css">
	.st0{fill:none;}
	.st1{fill:#000;}
</style>
<g>
	<path class="st0" d="M113.34,88.2c0-29.03-22.96-52.8-51.67-54.11V142.3C90.38,140.99,113.34,117.23,113.34,88.2z"/>
	<path class="st0" d="M5,88.2c0,29.03,22.96,52.8,51.67,54.11V34.09C27.96,35.4,5,59.16,5,88.2z"/>
	<path class="st1" d="M103.54,200.53H61.6c0.04-0.18,0.07-0.37,0.07-0.56V147.3c31.47-1.32,56.67-27.32,56.67-59.11
		S93.14,30.4,61.67,29.09V2.5c0-1.38-1.12-2.5-2.5-2.5s-2.5,1.12-2.5,2.5v26.59C25.2,30.4,0,56.41,0,88.2s25.2,57.79,56.67,59.11
		v52.66c0,0.19,0.03,0.38,0.07,0.56H14.8c-1.38,0-2.5,1.12-2.5,2.5s1.12,2.5,2.5,2.5h88.74c1.38,0,2.5-1.12,2.5-2.5
		S104.92,200.53,103.54,200.53z M113.34,88.2c0,29.03-22.96,52.8-51.67,54.11V34.09C90.38,35.4,113.34,59.16,113.34,88.2z M5,88.2
		c0-29.03,22.96-52.8,51.67-54.11V142.3C27.96,140.99,5,117.23,5,88.2z"/>
</g>
</svg>
