<?xml version="1.0" encoding="utf-8"?>
<!-- Generator: Adobe Illustrator 23.0.0, SVG Export Plug-In . SVG Version: 6.00 Build 0)  -->
<svg version="1.1" id="Layer_1" xmlns="http://www.w3.org/2000/svg" xmlns:xlink="http://www.w3.org/1999/xlink" x="0px" y="0px"
	 viewBox="0 0 111.36 205.17" style="enable-background:new 0 0 111.36 205.17;" xml:space="preserve">
<style type="text/css">
	.st0{fill:none;}
	.st1{fill:#000;}
</style>
<g>
	<path class="st0" d="M55.68,32.37c-12.01,0-21.93,9.13-23.18,20.81h46.35C77.61,41.5,67.69,32.37,55.68,32.37z"/>
	<polygon class="st0" points="19.14,200.17 92.22,200.17 55.68,65.61 	"/>
	<path class="st0" d="M55.68,5C28.57,5,6.37,26.39,5.06,53.18h22.42c1.27-14.44,13.43-25.81,28.2-25.81s26.93,11.37,28.2,25.81
		h22.42C104.99,26.39,82.79,5,55.68,5z"/>
	<path class="st1" d="M55.68,0C24.98,0,0,24.98,0,55.68c0,1.38,1.12,2.5,2.5,2.5h27.37h22.65L13.45,202.01
		c-0.2,0.75-0.05,1.56,0.43,2.17c0.47,0.62,1.21,0.98,1.99,0.98h79.63c0.78,0,1.51-0.36,1.99-0.98c0.47-0.62,0.63-1.42,0.43-2.17
		L58.84,58.18h22.65h27.37c1.38,0,2.5-1.12,2.5-2.5C111.36,24.98,86.38,0,55.68,0z M92.22,200.17H19.14L55.68,65.61L92.22,200.17z
		 M32.5,53.18c1.25-11.68,11.17-20.81,23.18-20.81s21.93,9.13,23.18,20.81H32.5z M83.88,53.18c-1.27-14.44-13.43-25.81-28.2-25.81
		s-26.93,11.37-28.2,25.81H5.06C6.37,26.39,28.57,5,55.68,5c27.11,0,49.31,21.39,50.62,48.18H83.88z"/>
</g>
</svg>
