<?xml version="1.0" encoding="utf-8"?>
<!-- Generator: Adobe Illustrator 23.0.0, SVG Export Plug-In . SVG Version: 6.00 Build 0)  -->
<svg version="1.1" id="Layer_1" xmlns="http://www.w3.org/2000/svg" xmlns:xlink="http://www.w3.org/1999/xlink" x="0px" y="0px"
	 viewBox="0 0 124.17 205.07" style="enable-background:new 0 0 124.17 205.07;" xml:space="preserve">
<style type="text/css">
	.st0{fill:none;}
	.st1{fill:#000;}
</style>
<g>
	<polygon class="st0" points="17.95,200.07 106.23,200.07 62.09,16.16 	"/>
	<path class="st1" d="M121.67,0H2.5C1.12,0,0,1.12,0,2.5S1.12,5,2.5,5h57.12L12.34,201.99c-0.18,0.74-0.01,1.53,0.47,2.13
		s1.2,0.95,1.96,0.95h94.62c0.77,0,1.49-0.35,1.96-0.95s0.65-1.39,0.47-2.13L64.55,5h57.12c1.38,0,2.5-1.12,2.5-2.5
		S123.05,0,121.67,0z M106.23,200.07H17.95L62.09,16.16L106.23,200.07z"/>
</g>
</svg>
