<?xml version="1.0" encoding="utf-8"?>
<!-- Generator: Adobe Illustrator 23.0.0, SVG Export Plug-In . SVG Version: 6.00 Build 0)  -->
<svg version="1.1" id="Layer_1" xmlns="http://www.w3.org/2000/svg" xmlns:xlink="http://www.w3.org/1999/xlink" x="0px" y="0px"
	 viewBox="0 0 125.86 204.91" style="enable-background:new 0 0 125.86 204.91;" xml:space="preserve">
<style type="text/css">
	.st0{fill:none;}
	.st1{fill:#000;}
</style>
<g>
	<polygon class="st0" points="18.12,199.91 107.74,199.91 84.95,104.95 40.91,104.95 	"/>
	<polygon class="st0" points="62.93,13.21 42.11,99.95 83.75,99.95 	"/>
	<path class="st1" d="M123.36,99.95H88.89L65.36,1.92C65.09,0.79,64.08,0,62.93,0s-2.16,0.79-2.43,1.92L36.97,99.95H2.5
		c-1.38,0-2.5,1.12-2.5,2.5s1.12,2.5,2.5,2.5h33.27l-23.25,96.87c-0.18,0.74-0.01,1.53,0.47,2.13c0.47,0.6,1.2,0.95,1.96,0.95h95.96
		c0.77,0,1.49-0.35,1.96-0.95c0.47-0.6,0.65-1.39,0.47-2.13l-23.25-96.87h33.27c1.38,0,2.5-1.12,2.5-2.5S124.74,99.95,123.36,99.95z
		 M62.93,13.21l20.82,86.74H42.11L62.93,13.21z M107.74,199.91H18.12l22.79-94.95h44.04L107.74,199.91z"/>
</g>
</svg>
