<?xml version="1.0" encoding="utf-8"?>
<!-- Generator: Adobe Illustrator 23.0.0, SVG Export Plug-In . SVG Version: 6.00 Build 0)  -->
<svg version="1.1" id="Layer_1" xmlns="http://www.w3.org/2000/svg" xmlns:xlink="http://www.w3.org/1999/xlink" x="0px" y="0px"
	 viewBox="0 0 187.55 205.62" style="enable-background:new 0 0 187.55 205.62;" xml:space="preserve">
<style type="text/css">
	.st0{fill:none;}
	.st1{fill:#000;}
</style>
<g>
	<polygon class="st0" points="112.92,81.67 180.42,81.67 146.67,30.22 	"/>
	<polygon class="st0" points="7.13,200.62 153.91,200.62 80.51,88.73 	"/>
	<path class="st1" d="M83.5,84.17l29.92-45.63c0.76-1.15,0.44-2.7-0.72-3.46c-1.16-0.76-2.7-0.44-3.46,0.72L80.51,79.61L51.72,35.72
		c-0.76-1.16-2.31-1.48-3.46-0.72c-1.15,0.76-1.48,2.31-0.72,3.46l29.99,45.71L0.41,201.75c-0.5,0.77-0.55,1.75-0.11,2.56
		s1.28,1.31,2.2,1.31h156.04c0.92,0,1.76-0.5,2.2-1.31c0.44-0.81,0.39-1.79-0.11-2.56L83.5,84.17z M7.13,200.62L80.51,88.73
		l73.4,111.89H7.13z"/>
	<path class="st1" d="M187.14,82.8l-37.48-57.14l14.26-21.75c0.76-1.15,0.44-2.7-0.72-3.46c-1.16-0.76-2.7-0.44-3.46,0.72
		L146.67,21.1l-13.1-19.97c-0.76-1.16-2.31-1.48-3.46-0.72c-1.15,0.76-1.48,2.31-0.72,3.46l14.29,21.79L106.2,82.8
		c-0.5,0.77-0.55,1.75-0.11,2.56s1.28,1.31,2.2,1.31h76.76c0.92,0,1.76-0.5,2.2-1.31C187.69,84.55,187.65,83.57,187.14,82.8z
		 M112.92,81.67l33.75-51.46l33.75,51.46H112.92z"/>
</g>
</svg>
