<?xml version="1.0" encoding="utf-8"?>
<!-- Generator: Adobe Illustrator 23.0.0, SVG Export Plug-In . SVG Version: 6.00 Build 0)  -->
<svg version="1.1" id="Layer_1" xmlns="http://www.w3.org/2000/svg" xmlns:xlink="http://www.w3.org/1999/xlink" x="0px" y="0px"
	 viewBox="0 0 143.42 205.4" style="enable-background:new 0 0 143.42 205.4;" xml:space="preserve">
<style type="text/css">
	.st0{fill:none;}
	.st1{fill:#000;}
</style>
<g>
	<path class="st0" d="M48.77,177.46c0,12.65,10.29,22.94,22.94,22.94s22.94-10.29,22.94-22.94c0-12.65-10.29-22.93-22.94-22.93
		S48.77,164.82,48.77,177.46z"/>
	<path class="st1" d="M140.92,74.21h-38.65H74.21V54.5h28.06c1.38,0,2.5-1.12,2.5-2.5s-1.12-2.5-2.5-2.5H74.21v-47
		c0-1.38-1.12-2.5-2.5-2.5s-2.5,1.12-2.5,2.5v47H41.15c-1.38,0-2.5,1.12-2.5,2.5s1.12,2.5,2.5,2.5h28.06v19.71H41.15H2.5
		c-1.38,0-2.5,1.12-2.5,2.5s1.12,2.5,2.5,2.5h38.65h28.06v19.7H25.82c-1.38,0-2.5,1.12-2.5,2.5s1.12,2.5,2.5,2.5h43.39v45.73
		c-14.24,1.27-25.44,13.26-25.44,27.82c0,15.4,12.53,27.94,27.94,27.94s27.94-12.53,27.94-27.94c0-14.56-11.2-26.55-25.44-27.82
		v-45.73h43.39c1.38,0,2.5-1.12,2.5-2.5s-1.12-2.5-2.5-2.5H74.21v-19.7h28.06h38.65c1.38,0,2.5-1.12,2.5-2.5
		S142.3,74.21,140.92,74.21z M94.65,177.46c0,12.65-10.29,22.94-22.94,22.94s-22.94-10.29-22.94-22.94
		c0-12.65,10.29-22.93,22.94-22.93S94.65,164.82,94.65,177.46z"/>
</g>
</svg>
