<?xml version="1.0" encoding="utf-8"?>
<!-- Generator: Adobe Illustrator 23.0.0, SVG Export Plug-In . SVG Version: 6.00 Build 0)  -->
<svg version="1.1" id="Layer_1" xmlns="http://www.w3.org/2000/svg" xmlns:xlink="http://www.w3.org/1999/xlink" x="0px" y="0px"
	 viewBox="0 0 101.45 204.6" style="enable-background:new 0 0 101.45 204.6;" xml:space="preserve">
<style type="text/css">
	.st0{fill:none;}
	.st1{fill:#000;}
</style>
<g>
	<path class="st0" d="M50.72,35.21c8.33,0,15.1-6.78,15.1-15.1c0-8.33-6.78-15.1-15.1-15.1c-8.33,0-15.1,6.78-15.1,15.1
		C35.62,28.43,42.4,35.21,50.72,35.21z"/>
	<polygon class="st0" points="88.63,40.68 12.82,40.68 50.72,190.74 	"/>
	<path class="st1" d="M98.95,199.6H53.64L94.26,38.8c0.19-0.75,0.02-1.54-0.45-2.15s-1.2-0.96-1.97-0.96H63.41
		c4.52-3.69,7.42-9.3,7.42-15.58C70.83,9.02,61.81,0,50.72,0c-11.08,0-20.1,9.02-20.1,20.1c0,6.28,2.9,11.89,7.42,15.58H9.61
		c-0.77,0-1.5,0.36-1.97,0.96S7,38.05,7.18,38.8L47.81,199.6H2.5c-1.38,0-2.5,1.12-2.5,2.5s1.12,2.5,2.5,2.5h96.45
		c1.38,0,2.5-1.12,2.5-2.5S100.33,199.6,98.95,199.6z M35.62,20.1c0-8.33,6.78-15.1,15.1-15.1c8.33,0,15.1,6.78,15.1,15.1
		c0,8.33-6.78,15.1-15.1,15.1C42.4,35.21,35.62,28.43,35.62,20.1z M12.82,40.68h75.81L50.72,190.74L12.82,40.68z"/>
</g>
</svg>
