<?xml version="1.0" encoding="utf-8"?>
<!-- Generator: Adobe Illustrator 23.0.0, SVG Export Plug-In . SVG Version: 6.00 Build 0)  -->
<svg version="1.1" id="Layer_1" xmlns="http://www.w3.org/2000/svg" xmlns:xlink="http://www.w3.org/1999/xlink" x="0px" y="0px"
	 viewBox="0 0 204.35 99.07" style="enable-background:new 0 0 204.35 99.07;" xml:space="preserve">
<style type="text/css">
	.st0{fill:#000;}
</style>
<path class="st0" d="M201.85,0c-1.38,0-2.5,1.12-2.5,2.5v24.97h-57.72c-1.38,0-2.5,1.12-2.5,2.5c0,0.08,0.02,0.16,0.02,0.25
	c-0.01,0.08-0.02,0.16-0.02,0.25c0,19.92-16.21,36.13-36.13,36.13c-19.92,0-36.13-16.21-36.13-36.13c0-0.08-0.02-0.16-0.02-0.25
	c0.01-0.08,0.02-0.16,0.02-0.25c0-1.38-1.12-2.5-2.5-2.5H5.47c-0.16,0-0.32,0.02-0.47,0.05V2.5C5,1.12,3.88,0,2.5,0S0,1.12,0,2.5
	v94.07c0,1.38,1.12,2.5,2.5,2.5S5,97.95,5,96.57V32.42c0.15,0.03,0.31,0.05,0.47,0.05h56.45C62.97,54.22,80.99,71.59,103,71.59
	c22,0,40.03-17.37,41.08-39.12h55.27v64.09c0,1.38,1.12,2.5,2.5,2.5s2.5-1.12,2.5-2.5V2.5C204.35,1.12,203.23,0,201.85,0z"/>
</svg>
