<?xml version="1.0" encoding="utf-8"?>
<!-- Generator: Adobe Illustrator 23.0.0, SVG Export Plug-In . SVG Version: 6.00 Build 0)  -->
<svg version="1.1" id="Layer_1" xmlns="http://www.w3.org/2000/svg" xmlns:xlink="http://www.w3.org/1999/xlink" x="0px" y="0px"
	 viewBox="0 0 2996.69 296.81" style="enable-background:new 0 0 2996.69 296.81;" xml:space="preserve">
<g>
	<path d="M150.42,249.09c-59.85,0-96.64-48.12-96.64-102.71c0-53.38,35.58-98.67,96.24-98.67c45.69,0,78.45,30.33,78.45,30.33
		l25.07-38.82c0,0-35.99-39.22-105.94-39.22C63.08,0,0,63.89,0,147.19c0,84.51,60.66,149.62,148.4,149.62
		c73.19,0,112.82-46.5,112.82-46.5l-27.5-37.61C233.73,212.7,200.16,249.09,150.42,249.09z"/>
	<path d="M395.07,80.87c-62.68,0-113.22,44.88-113.22,107.97c0,63.48,50.55,107.97,113.63,107.97
		c62.68,0,113.22-44.48,113.22-107.97C508.7,125.76,458.15,80.87,395.07,80.87z M395.48,253.13c-33.56,0-61.46-25.88-61.46-64.29
		c0-38.01,27.9-64.29,61.46-64.29c33.16,0,61.06,26.28,61.06,64.29C456.53,227.25,428.63,253.13,395.48,253.13z"/>
	<path d="M556.42,79.66v9.3h-25.47v40.84h25.47v162.15h51.35V129.8h44.08V88.96h-44.08v-8.09c0-29.92,25.07-33.56,39.63-33.56
		c6.06,0,10.51,0.81,10.51,0.81V4.45c0,0-6.87-1.21-17.39-1.21C611.81,3.24,556.42,12.13,556.42,79.66z"/>
	<path d="M692.69,79.66v9.3h-25.48v40.84h25.48v162.15h51.35V129.8h44.08V88.96h-44.08v-8.09c0-29.92,25.07-33.56,39.63-33.56
		c6.07,0,10.51,0.81,10.51,0.81V4.45c0,0-6.87-1.21-17.39-1.21C748.09,3.24,692.69,12.13,692.69,79.66z"/>
	<path d="M908.62,80.87c-61.46,0-104.73,44.48-104.73,107.97c0,58.63,42.46,107.97,110.8,107.97c51.35,0,82.9-29.52,82.9-29.52
		l-19.81-36.8c0,0-26.28,22.65-59.44,22.65c-30.73,0-58.63-18.6-61.87-54.59H998.8c0,0,1.21-13.75,1.21-19.81
		C1000.01,124.14,968.06,80.87,908.62,80.87z M858.08,163.37c4.85-26.69,23.05-42.86,49.33-42.86c22.64,0,40.03,14.96,40.84,42.86
		H858.08z"/>
	<path d="M1128.6,80.87c-61.46,0-104.73,44.48-104.73,107.97c0,58.63,42.46,107.97,110.8,107.97c51.35,0,82.89-29.52,82.89-29.52
		l-19.82-36.8c0,0-26.28,22.65-59.44,22.65c-30.73,0-58.63-18.6-61.87-54.59h142.34c0,0,1.21-13.75,1.21-19.81
		C1219.99,124.14,1188.04,80.87,1128.6,80.87z M1078.06,163.37c4.85-26.69,23.05-42.86,49.33-42.86c22.64,0,40.03,14.96,40.84,42.86
		H1078.06z"/>
	<path d="M1548.34,82.9h-51.35v37.2h-45.69c-34.37,0-43.67-21.43-43.67-38.01c0-25.07,19.81-38.41,44.08-38.41
		c9.3,0,19.01,2.43,19.01,2.43l12.53-41.25c0,0-19.41-4.85-37.61-4.85c-49.74,0-90.58,24.67-90.58,75.62
		c0,48.52,36.39,62.68,36.39,62.68v0.81c-30.33,10.51-48.93,40.43-48.93,71.57c0,48.52,40.44,86.13,102.71,86.13
		c64.7,0,103.11-38.82,103.11-97.45v-33.97h37.2V120.1h-37.2V82.9z M1496.98,196.52c0,34.77-19.41,52.57-51.76,52.57
		c-29.52,0-49.33-18.6-49.33-41.65c0-27.9,20.62-42.05,52.57-42.05h48.53V196.52z"/>
	<path d="M1859.3,249.09c-59.85,0-96.64-48.12-96.64-102.71c0-53.38,35.58-98.67,96.24-98.67c45.69,0,78.45,30.33,78.45,30.33
		l25.07-38.82c0,0-35.99-39.22-105.94-39.22c-84.51,0-147.59,63.89-147.59,147.19c0,84.51,60.65,149.62,148.4,149.62
		c73.19,0,112.82-46.5,112.82-46.5l-27.5-37.61C1942.6,212.7,1909.04,249.09,1859.3,249.09z"/>
	<path d="M2082.92,80.87c-48.93,0-80.87,25.47-80.87,25.47l19.41,36.8c0,0,27.09-19.81,56.61-19.81c22.64,0,39.63,9.3,39.63,36.39
		v2.83h-6.88c-33.56,0-122.12,4.45-122.12,69.96c0,41.24,33.16,64.29,69.95,64.29c46.91,0,63.08-36.39,62.68-36.39h0.81
		c0,0-0.81,6.47-0.81,14.56v16.98h47.31V162.96C2168.64,110.8,2137.1,80.87,2082.92,80.87z M2118.1,202.59
		c0,25.07-19.41,54.18-46.5,54.18c-21.03,0-31.14-12.94-31.14-26.69c0-28.71,42.46-32.35,68.74-32.35h8.9V202.59z"/>
	<path d="M2340.5,80.87c-41.65,0-64.29,25.47-73.19,42.86h-0.81c0,0,0.81-6.47,0.81-14.15V85.73h-49.33v206.23h51.35v-94.62
		c0-9.71,0.81-19.01,3.64-27.5c7.68-24.67,27.9-42.06,55.4-42.06c26.28,0,32.75,16.99,32.75,42.06v122.12h50.95V159.32
		C2412.08,104.73,2386.2,80.87,2340.5,80.87z"/>
	<path d="M2600.92,95.43c0,6.47,0.41,11.73,0.41,11.73h-0.81c0,0-14.15-26.28-59.44-26.28c-54.59,0-93.41,42.46-93.41,107.97
		c0,63.89,35.58,107.97,91.39,107.97c47.31,0,64.7-35.18,64.7-35.18h0.81c0,0-0.81,5.66-0.81,13.35v16.98h48.52V4.85h-51.35V95.43z
		 M2550.78,253.54c-30.33,0-51.35-25.47-51.35-64.7c0-40.84,23.45-63.89,51.76-63.89c34.37,0,51.35,31.54,51.35,63.49
		C2602.54,234.13,2577.47,253.54,2550.78,253.54z"/>
	<path d="M2752.96,219.98V4.85h-50.95v222.81c0,59.04,35.18,66.32,63.48,66.32c8.49,0,16.18-1.21,16.18-1.21v-44.89
		c0,0-3.64,0.4-7.68,0.4C2760.65,248.28,2752.96,242.62,2752.96,219.98z"/>
	<path d="M2905.81,80.87c-61.46,0-104.73,44.48-104.73,107.97c0,58.63,42.46,107.97,110.8,107.97c51.36,0,82.9-29.52,82.9-29.52
		l-19.81-36.8c0,0-26.28,22.65-59.44,22.65c-30.73,0-58.63-18.6-61.87-54.59h142.34c0,0,0.37-4.17,0.7-8.93v-22.66
		C2992.38,118.05,2960.91,80.87,2905.81,80.87z M2855.27,163.37c4.85-26.69,23.05-42.86,49.33-42.86
		c22.65,0,40.03,14.96,40.84,42.86H2855.27z"/>
</g>
</svg>
