<?xml version="1.0" encoding="utf-8"?>
<!-- Generator: Adobe Illustrator 23.0.0, SVG Export Plug-In . SVG Version: 6.00 Build 0)  -->
<svg version="1.1" id="Layer_1" xmlns="http://www.w3.org/2000/svg" xmlns:xlink="http://www.w3.org/1999/xlink" x="0px" y="0px"
	 viewBox="0 0 92.17 204.2" style="enable-background:new 0 0 92.17 204.2;" xml:space="preserve">
<style type="text/css">
	.st0{fill:#000;}
</style>
<path class="st0" d="M87.75,120.13c-0.98-0.98-2.56-0.98-3.54,0l-35.63,35.63V84.17c13.61-0.38,23.61-3.95,30.52-10.89
	C92.32,60.02,92.25,36.55,92.16,9.37c-0.01-2.26-0.02-4.55-0.02-6.87c0-1.38-1.12-2.5-2.5-2.5s-2.5,1.12-2.5,2.5
	c0,2.32,0.01,4.62,0.02,6.88c0.09,26.06,0.16,48.58-11.59,60.37c-5.94,5.96-14.78,9.05-26.98,9.42V23.58c0-1.38-1.12-2.5-2.5-2.5
	s-2.5,1.12-2.5,2.5v55.58c-12.18-0.37-21.01-3.46-26.95-9.42C4.86,57.94,4.93,35.38,5.01,9.26C5.02,7.03,5.03,4.78,5.03,2.5
	c0-1.38-1.12-2.5-2.5-2.5s-2.5,1.12-2.5,2.5c0,2.27-0.01,4.52-0.01,6.75C-0.07,36.48-0.15,60,13.09,73.28
	C20,80.21,30,83.78,43.59,84.17v71.59L7.96,120.13c-0.98-0.98-2.56-0.98-3.54,0c-0.98,0.98-0.98,2.56,0,3.54l38.13,38.13
	L4.42,199.93c-0.98,0.98-0.98,2.56,0,3.54c0.49,0.49,1.13,0.73,1.77,0.73s1.28-0.24,1.77-0.73l38.13-38.13l38.13,38.13
	c0.49,0.49,1.13,0.73,1.77,0.73s1.28-0.24,1.77-0.73c0.98-0.98,0.98-2.56,0-3.54L49.62,161.8l38.13-38.13
	C88.73,122.69,88.73,121.11,87.75,120.13z"/>
</svg>
