<?xml version="1.0" encoding="utf-8"?>
<!-- Generator: Adobe Illustrator 23.0.0, SVG Export Plug-In . SVG Version: 6.00 Build 0)  -->
<svg version="1.1" id="Layer_1" xmlns="http://www.w3.org/2000/svg" xmlns:xlink="http://www.w3.org/1999/xlink" x="0px" y="0px"
	 viewBox="0 0 157.97 204.91" style="enable-background:new 0 0 157.97 204.91;" xml:space="preserve">
<style type="text/css">
	.st0{fill:none;}
	.st1{fill:#000;}
</style>
<g>
	<path class="st0" d="M43.11,5h-9.38C17.89,5,5,17.89,5,33.73v1.95c0,15.84,12.89,28.73,28.73,28.73h9.32V5.55
		C43.05,5.36,43.07,5.18,43.11,5z"/>
	<path class="st0" d="M48.05,64.41h9.32c15.84,0,28.73-12.89,28.73-28.73v-1.95C86.1,17.89,73.21,5,57.37,5h-9.38
		c0.04,0.18,0.06,0.36,0.06,0.55V64.41z"/>
	<path class="st0" d="M124.24,71.22h-9.38c0.04,0.18,0.06,0.36,0.06,0.55v58.86h9.32c15.84,0,28.73-12.89,28.73-28.73v-1.95
		C152.97,84.11,140.08,71.22,124.24,71.22z"/>
	<path class="st0" d="M109.98,71.22h-9.38c-15.84,0-28.73,12.89-28.73,28.73v1.95c0,15.84,12.89,28.73,28.73,28.73h9.32V71.77
		C109.92,71.58,109.94,71.4,109.98,71.22z"/>
	<path class="st1" d="M124.24,66.22H100.6c-18.6,0-33.73,15.13-33.73,33.73v1.95c0,18.6,15.13,33.73,33.73,33.73h9.32v64.27H93.23
		c-1.38,0-2.5,1.12-2.5,2.5s1.12,2.5,2.5,2.5h38.39c1.38,0,2.5-1.12,2.5-2.5s-1.12-2.5-2.5-2.5h-16.69v-64.27h9.32
		c18.6,0,33.73-15.13,33.73-33.73v-1.95C157.97,81.35,142.84,66.22,124.24,66.22z M100.6,130.63c-15.84,0-28.73-12.89-28.73-28.73
		v-1.95c0-15.84,12.89-28.73,28.73-28.73h9.38c-0.04,0.18-0.06,0.36-0.06,0.55v58.86H100.6z M152.97,101.9
		c0,15.84-12.89,28.73-28.73,28.73h-9.32V71.77c0-0.19-0.02-0.37-0.06-0.55h9.38c15.84,0,28.73,12.89,28.73,28.73V101.9z"/>
	<path class="st1" d="M64.62,133.64H48.05V69.41h9.32c18.6,0,33.73-15.13,33.73-33.73v-1.95C91.1,15.13,75.97,0,57.37,0H33.73
		C15.13,0,0,15.13,0,33.73v1.95c0,18.6,15.13,33.73,33.73,33.73h9.32v64.23H26.23c-1.38,0-2.5,1.12-2.5,2.5s1.12,2.5,2.5,2.5h38.39
		c1.38,0,2.5-1.12,2.5-2.5S66,133.64,64.62,133.64z M57.37,5C73.21,5,86.1,17.89,86.1,33.73v1.95c0,15.84-12.89,28.73-28.73,28.73
		h-9.32V5.55c0-0.19-0.02-0.37-0.06-0.55H57.37z M33.73,64.41C17.89,64.41,5,51.52,5,35.68v-1.95C5,17.89,17.89,5,33.73,5h9.38
		c-0.04,0.18-0.06,0.36-0.06,0.55v58.86H33.73z"/>
</g>
</svg>
